<?xml version="1.0" encoding="UTF-8" standalone="no"?>
<!-- Created with Inkscape (http://www.inkscape.org/) -->

<svg
   version="1.1"
   id="svg2"
   width="153.85866"
   height="75.590157"
   viewBox="0 0 153.85866 75.590157"
   sodipodi:docname="SIDN Labs logo.eps"
   xmlns:inkscape="http://www.inkscape.org/namespaces/inkscape"
   xmlns:sodipodi="http://sodipodi.sourceforge.net/DTD/sodipodi-0.dtd"
   xmlns="http://www.w3.org/2000/svg"
   xmlns:svg="http://www.w3.org/2000/svg">
  <defs
     id="defs6" />
  <sodipodi:namedview
     id="namedview4"
     pagecolor="#505050"
     bordercolor="#eeeeee"
     borderopacity="1"
     inkscape:showpageshadow="0"
     inkscape:pageopacity="0"
     inkscape:pagecheckerboard="0"
     inkscape:deskcolor="#505050"
     showgrid="false" />
  <g
     id="g10"
     inkscape:groupmode="layer"
     inkscape:label="Page 1"
     transform="matrix(1.3333333,0,0,-1.3333333,0,75.589849)">
    <g
       id="g12"
       transform="scale(0.1)">
      <path
         d="M 636.848,249.707 C 603.32,358.52 536.211,490.434 497.512,565.016 c 36.051,-2.559 64.508,-6.563 95.41,-14.825 0.34,-73.769 38.289,-200.078 43.926,-300.484"
         style="fill:#45c0b6;fill-opacity:1;fill-rule:nonzero;stroke:none"
         id="path14" />
      <path
         d="m 0.332031,189.629 v 44.668 C 15.5625,227.012 34.418,219.746 54.9531,219.746 c 21.8438,0 31.4453,7.266 31.4453,19.199 0,15.879 -14.2343,16.211 -46.0156,30.118 C 19.5273,278.004 0,293.883 0,328.305 c 0,41.711 31.4492,60.91 74.4805,60.91 22.8398,0 41.3745,-4.973 52.9605,-9.258 v -43.711 c -10.586,4.969 -29.8004,11.27 -48.9918,11.27 -18.8633,0 -27.4648,-6.301 -27.4648,-17.227 0,-11.914 11.25,-16.211 30.4453,-23.164 31.4533,-11.262 58.9223,-23.496 58.9223,-65.875 0,-42.031 -33.106,-63.555 -76.1332,-63.555 -26.8125,0 -47.3399,4.649 -63.886769,11.934"
         style="fill:#3163b8;fill-opacity:1;fill-rule:nonzero;stroke:none"
         id="path16" />
      <path
         d="m 499.805,249.941 v 92.387 C 411.633,399.82 316.672,459.887 242.387,513.355 212.473,486.168 190.727,439.898 181.063,386.383 h 51.609 V 249.785 c 14.828,0.02 31.953,0.039 50.648,0.059 v 136.558 h 75.149 c 75.789,0 103.594,-49.66 103.594,-102.949 0,-11.168 -1.426,-22.652 -4.395,-33.512 14.168,0 28.262,0 42.137,0"
         style="fill:#3163b8;fill-opacity:1;fill-rule:nonzero;stroke:none"
         id="path18" />
      <path
         d="m 583.605,249.844 c -12.199,0.019 -24.933,0.039 -38.125,0.058 v -69.707 h -45.675 v 69.746 c -13.875,0 -27.969,0 -42.137,0 C 447.41,212.285 417.844,180.195 357.473,180.195 H 283.32 v 69.649 c -18.695,-0.02 -35.82,-0.039 -50.648,-0.059 v -69.59 H 181.063 C 192.797,102.441 223.547,49.4531 296.992,25.1367 392.59,93.2617 511.824,145.234 602.59,219.297 l -18.985,30.547"
         style="fill:#f14826;fill-opacity:1;fill-rule:nonzero;stroke:none"
         id="path20" />
      <path
         d="M 602.59,219.297 C 511.824,145.234 392.59,93.2617 296.992,25.1367 322.563,15.8008 350.227,9.96094 381.621,5.97656 452.156,69.4922 541.262,129.609 607.883,210.801 l -5.293,8.496"
         style="fill:#e76f32;fill-opacity:1;fill-rule:nonzero;stroke:none"
         id="path22" />
      <path
         d="m 631.238,180.195 h -4.312 l -19.043,30.606 C 541.262,129.609 452.156,69.4922 381.621,5.97656 c 84.082,-9.92187 164.988,-8.94531 231.438,14.06254 -6.301,52.6953 9.324,101.8359 18.179,160.1559"
         style="fill:#5f2490;fill-opacity:1;fill-rule:nonzero;stroke:none"
         id="path24" />
      <path
         d="m 659.277,180.195 h -28.039 c -8.855,-58.32 -24.48,-107.4606 -18.179,-160.1559 35.972,12.832 58.671,28.8281 79.121,57.5 -19.922,39.1799 -25.254,69.8439 -32.903,102.6559"
         style="fill:#4baed2;fill-opacity:1;fill-rule:nonzero;stroke:none"
         id="path26" />
      <path
         d="m 682.195,188.398 v -8.203 h -22.918 c 7.649,-32.812 12.981,-63.476 32.903,-102.6559 10.918,15.3906 20.215,35.1559 26.851,55.6449 -17.129,22.675 -27.09,39.355 -36.836,55.214"
         style="fill:#ffffff;fill-opacity:1;fill-rule:nonzero;stroke:none"
         id="path28" />
      <path
         d="M 739.602,327.543 C 714.973,315.855 701.25,294.918 682.195,276.91 v -88.512 c 9.746,-15.859 19.707,-32.539 36.836,-55.214 18.75,58.769 23.391,122.89 20.571,194.359"
         style="fill:#2e9b41;fill-opacity:1;fill-rule:nonzero;stroke:none"
         id="path30" />
      <path
         d="m 737.645,356.586 c -24.278,-17.566 -37.672,-43.66 -55.45,-67.117 V 276.91 c 19.055,18.008 32.778,38.945 57.407,50.633 -0.469,10.617 -0.997,18.742 -1.957,29.043"
         style="fill:#ffffff;fill-opacity:1;fill-rule:nonzero;stroke:none"
         id="path32" />
      <path
         d="M 730.398,405.621 C 708.293,380.875 696.105,349.008 682.195,318.48 v -29.011 c 17.778,23.457 31.172,49.551 55.45,67.117 -1.598,17.148 -3.946,33.547 -7.247,49.035"
         style="fill:#f14826;fill-opacity:1;fill-rule:nonzero;stroke:none"
         id="path34" />
      <path
         d="m 682.195,318.48 c 13.918,30.528 26.098,62.395 48.203,87.141 -0.664,3.106 -0.425,2.059 -1.128,5.137 -8.477,36.797 -20.977,64.461 -42.54,87.82 -15.05,-32.019 -21.242,-71.512 -26.156,-112.176 h 21.621 v -63.859 -4.063"
         style="fill:#142c61;fill-opacity:1;fill-rule:nonzero;stroke:none"
         id="path36" />
      <path
         d="m 660.574,386.402 c 4.914,40.664 11.106,80.157 26.156,112.176 -8.949,9.719 -19.14,18.098 -30.761,25.383 -11.953,-37.734 -12.641,-86.875 -12.629,-137.559 h 17.234"
         style="fill:#4fc074;fill-opacity:1;fill-rule:nonzero;stroke:none"
         id="path38" />
      <path
         d="m 639.609,386.402 c -1.394,52.625 -2.296,103.575 8.45,142.235 -2.434,1.359 -1.582,0.91 -4.082,2.218 -10.082,-39.082 -8.364,-90.898 -6.211,-144.453 h 1.843"
         style="fill:#142c61;fill-opacity:1;fill-rule:nonzero;stroke:none"
         id="path40" />
      <path
         d="m 636.516,386.402 h 1.25 c -2.153,53.555 -3.871,105.371 6.211,144.453 -4.985,2.618 -11.899,5.829 -17.344,8.067 -10.078,-59.113 5.801,-149.016 9.883,-231.035 v 78.515"
         style="fill:#4fc074;fill-opacity:1;fill-rule:nonzero;stroke:none"
         id="path42" />
      <path
         d="m 636.516,281.813 v 26.074 c -4.082,82.019 -19.961,171.922 -9.883,231.035 -10.863,4.473 -21.445,7.976 -33.711,11.269 0.34,-73.769 38.289,-200.078 43.926,-300.484 -0.657,9.258 -0.332,23.496 -0.332,32.106"
         style="fill:#3163b8;fill-opacity:1;fill-rule:nonzero;stroke:none"
         id="path44" />
      <path
         d="M 636.848,249.707 C 603.32,358.52 536.211,490.434 497.512,565.016 c -25.141,1.797 -47.032,2.293 -72.114,1.621 63.418,-73.418 147.961,-194.199 202.61,-299.567 3.43,-6.308 6.555,-12.441 8.84,-17.363"
         style="fill:#e76f32;fill-opacity:1;fill-rule:nonzero;stroke:none"
         id="path46" />
      <path
         d="m 425.398,566.637 c -3.589,-0.098 -8.32,-0.254 -11.875,-0.41 42.637,-46.7 93.528,-111.797 139.883,-179.825 h 1.02 l 13.765,-22.07 h 0.012 l 44.695,-71.672 c 0.04,-0.047 0.082,-0.105 0.11,-0.164 l 5.637,-9.043 c 3.101,-5.117 6.355,-10.816 9.363,-16.383 -54.649,105.368 -139.192,226.149 -202.61,299.567"
         style="fill:#5f2490;fill-opacity:1;fill-rule:nonzero;stroke:none"
         id="path48" />
      <path
         d="m 553.406,386.402 c -46.355,68.028 -97.246,133.114 -139.883,179.825 -7.085,-0.313 -10.585,-0.52 -17.554,-1.016 46.187,-47.121 100.484,-111.594 150.078,-178.809 h 7.359"
         style="fill:#4baed2;fill-opacity:1;fill-rule:nonzero;stroke:none"
         id="path50" />
      <path
         d="m 546.047,386.402 c -49.594,67.215 -103.891,131.688 -150.078,178.809 -13.949,-1.016 -26.313,-2.344 -39.383,-4.356 53.109,-47.785 114.391,-110.05 170.98,-174.453 h 18.481"
         style="fill:#2e9b41;fill-opacity:1;fill-rule:nonzero;stroke:none"
         id="path52" />
      <path
         d="m 499.805,386.402 h 27.761 c -56.589,64.403 -117.871,126.668 -170.98,174.453 -22.813,-3.507 -40.91,-7.832 -59.93,-15 62.067,-49.257 134.828,-108.3 203.149,-167.91 v 8.457"
         style="fill:#ffffff;fill-opacity:1;fill-rule:nonzero;stroke:none"
         id="path54" />
      <path
         d="m 499.805,377.945 c -68.321,59.61 -141.082,118.653 -203.149,167.91 -13.566,-5.117 -25.867,-11.32 -36.968,-18.828 70.996,-52.941 158.593,-113.683 240.117,-172.922 v 23.84"
         style="fill:#f14826;fill-opacity:1;fill-rule:nonzero;stroke:none"
         id="path56" />
      <path
         d="m 499.805,354.098 c -81.524,59.246 -169.121,119.988 -240.117,172.929 -2.215,-1.496 -1.485,-0.996 -3.641,-2.539 71.734,-53.144 160.855,-113.84 243.758,-172.812 v 2.422"
         style="fill:#142c61;fill-opacity:1;fill-rule:nonzero;stroke:none"
         id="path58" />
      <path
         d="m 643.34,386.402 c -0.012,50.684 0.676,99.825 12.629,137.559 -2.309,1.445 -5.473,3.32 -7.91,4.676 -10.746,-38.66 -9.844,-89.61 -8.45,-142.235 h 3.731"
         style="fill:#ffffff;fill-opacity:1;fill-rule:nonzero;stroke:none"
         id="path60" />
      <path
         d="m 583.605,249.844 -20.902,33.609 c -5.586,8.809 -12.066,19.59 -16.504,28.399 -0.547,1.132 -1.211,2.343 -1.695,3.378 0.027,-0.734 0.039,-1.542 0.098,-2.304 0.339,-8.809 0.878,-18.985 0.878,-27.813 v -35.211 c 13.204,-0.019 25.926,-0.039 38.125,-0.058"
         style="fill:#3163b8;fill-opacity:1;fill-rule:nonzero;stroke:none"
         id="path62" />
      <path
         d="m 499.805,351.676 c -82.903,58.972 -172.024,119.668 -243.758,172.812 -4.344,-3.105 -9.797,-7.558 -13.66,-11.133 74.285,-53.468 169.246,-113.535 257.418,-171.027 v 9.348"
         style="fill:#4fc074;fill-opacity:1;fill-rule:nonzero;stroke:none"
         id="path64" />
      <path
         d="m 402.793,249.941 c -23.23,-0.019 -46.094,-0.039 -67.836,-0.058 v -27.324 h 17.547 c 28.746,0 43.414,10.722 50.289,27.382"
         style="fill:#f14826;fill-opacity:1;fill-rule:nonzero;stroke:none"
         id="path66" />
      <path
         d="m 354.488,344.691 h -19.531 v -94.808 c 21.742,0.019 44.606,0.039 67.836,0.058 3.895,9.414 5.332,20.957 5.332,33.512 0,35.078 -10.281,61.238 -53.637,61.238"
         style="fill:#3163b8;fill-opacity:1;fill-rule:nonzero;stroke:none"
         id="path68" />
      <path
         d="m 499.805,354.105 v 32.297 h 54.629 l 13.718,-22.011 v 0.007 l 44.77,-71.746 c 0.016,-0.058 0.058,-0.109 0.086,-0.156 l 5.637,-9.035 c 3.101,-5.125 6.355,-10.824 9.363,-16.391 3.43,-6.308 6.555,-12.441 8.84,-17.363 -0.657,9.258 -0.332,23.496 -0.332,32.106 v 26.074 78.515 h 1.25 1.851 3.723 17.234 21.621 v -63.859 -4.063 -29.011 -12.559 -88.512 -8.203 h -22.918 -28.039 -4.312 l -19.043,30.606 -5.293,8.496 -18.985,30.547 -20.902,33.617 c -5.586,8.801 -12.058,19.582 -16.504,28.391 -0.547,1.132 -1.211,2.343 -1.695,3.378 0.027,-0.734 0.039,-1.542 0.098,-2.304 0.339,-8.809 0.878,-18.985 0.878,-27.813 v -35.211 -69.707 h -45.675 v 69.746 92.387 9.348 2.429"
         style="fill:#ffffff;fill-opacity:1;fill-rule:nonzero;stroke:none"
         id="path70" />
      <path
         d="m 232.672,180.195 h -51.609 v 206.188 h 51.609 V 180.195"
         style="fill:#ffffff;fill-opacity:1;fill-rule:nonzero;stroke:none"
         id="path72" />
      <path
         d="m 402.793,249.941 c -6.875,-16.66 -21.543,-27.382 -50.289,-27.382 h -17.547 v 27.324 94.808 h 19.531 c 43.356,0 53.637,-26.16 53.637,-61.238 0,-12.555 -1.437,-24.098 -5.332,-33.512 z M 358.469,386.402 H 283.32 V 180.195 h 74.153 c 60.371,0 89.937,32.09 100.195,69.746 2.969,10.86 4.395,22.344 4.395,33.512 0,53.289 -27.805,102.949 -103.594,102.949"
         style="fill:#ffffff;fill-opacity:1;fill-rule:nonzero;stroke:none"
         id="path74" />
      <path
         d="m 783.66,360.434 h 24.36 v -91.215 h 40.535 V 249.688 H 783.66 v 110.746"
         style="fill:#3163b8;fill-opacity:1;fill-rule:nonzero;stroke:none"
         id="path76" />
      <path
         d="m 925.879,291.266 -9.238,28.457 c -2.137,6.582 -4.27,12.968 -5.52,18.125 h -0.351 c -1.422,-4.981 -3.551,-11.739 -5.692,-18.125 l -9.598,-28.457 z m -27.734,69.168 h 27.199 l 40.523,-110.746 h -26.48 l -7.114,22.031 h -43.179 l -7.485,-22.031 h -25.054 l 41.59,110.746"
         style="fill:#3163b8;fill-opacity:1;fill-rule:nonzero;stroke:none"
         id="path78" />
      <path
         d="m 1021.33,268.691 c 10.85,0 16.72,4.985 16.72,14.77 0,9.953 -5.52,15.109 -16.54,15.109 h -15.29 v -29.879 z m -0.52,46.579 c 11.02,0 15.64,4.98 15.64,13.515 0,7.645 -4.81,12.617 -15.47,12.617 h -14.76 V 315.27 Z m -38.923,45.164 H 1024 c 24,0 36.98,-11.387 36.98,-28.27 0,-13.691 -8.35,-22.051 -17.43,-24.531 v -0.352 c 11.91,-2.676 20.8,-11.035 20.8,-25.429 0,-20.25 -15.3,-32.164 -39.29,-32.164 h -43.173 v 110.746"
         style="fill:#3163b8;fill-opacity:1;fill-rule:nonzero;stroke:none"
         id="path80" />
      <path
         d="m 1081.06,254.492 v 21.149 c 8,-3.727 18.31,-7.457 28.98,-7.457 12.25,0 18.49,4.238 18.49,12.425 0,9.602 -8.36,10.657 -25.06,17.961 -11.39,5.137 -22.23,13.145 -22.23,31.641 0,21.504 16.17,31.629 38.57,31.629 11.92,0 22.05,-2.832 27.74,-4.981 v -20.613 c -5.69,2.676 -15.82,5.879 -25.96,5.879 -11.01,0 -16.17,-4.102 -16.17,-11.211 0,-7.461 6.22,-9.766 17.42,-14.043 14.4,-7.285 31.1,-10.488 31.1,-35.371 0,-21.5 -16.88,-33.238 -39.46,-33.238 -13.86,0 -24.88,2.48 -33.42,6.23"
         style="fill:#3163b8;fill-opacity:1;fill-rule:nonzero;stroke:none"
         id="path82" />
    </g>
  </g>
</svg>
